<svg version="1.1" id="Layer_1" xmlns="http://www.w3.org/2000/svg" xmlns:xlink="http://www.w3.org/1999/xlink" x="0px" y="0px"
	 width="100%" viewBox="0 0 500 500" enable-background="new 0 0 500 500" xml:space="preserve">
<path fill="none" opacity="1.000000" stroke="none" 
	d="
M1.000000,185.000000 
	C1.000000,123.348602 1.000000,62.197212 1.000000,1.022908 
	C167.609772,1.022908 334.219574,1.022908 500.914673,1.022908 
	C500.914673,167.568130 500.914673,334.136322 500.914673,500.852234 
	C334.333435,500.852234 167.666733,500.852234 1.000000,500.852234 
	C1.000000,395.780304 1.000000,290.640167 1.000000,185.000000 
M58.993343,267.519470 
	C58.993744,285.517395 58.975136,303.515381 59.000477,321.513275 
	C59.021267,336.277527 68.606300,349.293365 82.905312,352.816254 
	C89.960594,354.554504 97.353508,355.033997 104.628082,355.715607 
	C107.549667,355.989349 108.544662,357.161316 109.044853,359.874084 
	C113.291801,382.907043 117.690895,405.911957 121.986824,428.935974 
	C124.693565,443.442780 133.600403,450.997101 148.261383,450.999115 
	C216.754990,451.008636 285.248596,451.008820 353.742218,450.998993 
	C368.351807,450.996887 377.343689,443.350189 380.014557,428.890503 
	C382.609650,414.840912 385.365601,400.820862 387.921600,386.764343 
	C388.352203,384.396301 388.936249,383.238556 391.709564,383.580261 
	C398.149109,384.373718 404.661530,384.597656 411.088806,385.464600 
	C428.897369,387.866699 442.994995,375.766418 443.001038,357.816101 
	C443.015869,313.820221 442.951080,269.824188 443.041321,225.828491 
	C443.066589,213.515137 437.634583,204.766068 426.597961,199.661453 
	C423.959351,198.441055 423.611847,196.947327 424.044281,194.655899 
	C425.153229,188.779648 426.328125,182.915833 427.432648,177.038773 
	C433.967590,142.268097 440.614258,107.517700 446.954773,72.711555 
	C449.450836,59.009441 442.322601,50.997448 428.395355,50.997261 
	C310.073059,50.995655 191.750763,50.996338 73.428474,50.996513 
	C72.428574,50.996513 71.427727,50.970993 70.428909,51.004539 
	C60.323757,51.343922 52.728752,60.484589 54.524471,70.392128 
	C57.427986,86.411728 60.464603,102.407379 63.486485,118.405312 
	C70.269745,154.316147 77.111557,190.216064 83.748512,226.153870 
	C83.997856,227.504028 82.726585,230.132050 81.545082,230.599152 
	C65.142288,237.083496 57.871422,249.130554 58.993343,267.519470 
z"/>
<path fill="#FDFDFE" opacity="1.000000" stroke="none" 
	d="
M58.993343,267.024353 
	C57.871422,249.130554 65.142288,237.083496 81.545082,230.599152 
	C82.726585,230.132050 83.997856,227.504028 83.748512,226.153870 
	C77.111557,190.216064 70.269745,154.316147 63.486485,118.405312 
	C60.464603,102.407379 57.427986,86.411728 54.524471,70.392128 
	C52.728752,60.484589 60.323757,51.343922 70.428909,51.004539 
	C71.427727,50.970993 72.428574,50.996513 73.428474,50.996513 
	C191.750763,50.996338 310.073059,50.995655 428.395355,50.997261 
	C442.322601,50.997448 449.450836,59.009441 446.954773,72.711555 
	C440.614258,107.517700 433.967590,142.268097 427.432648,177.038773 
	C426.328125,182.915833 425.153229,188.779648 424.044281,194.655899 
	C423.611847,196.947327 423.959351,198.441055 426.597961,199.661453 
	C437.634583,204.766068 443.066589,213.515137 443.041321,225.828491 
	C442.951080,269.824188 443.015869,313.820221 443.001038,357.816101 
	C442.994995,375.766418 428.897369,387.866699 411.088806,385.464600 
	C404.661530,384.597656 398.149109,384.373718 391.709564,383.580261 
	C388.936249,383.238556 388.352203,384.396301 387.921600,386.764343 
	C385.365601,400.820862 382.609650,414.840912 380.014557,428.890503 
	C377.343689,443.350189 368.351807,450.996887 353.742218,450.998993 
	C285.248596,451.008820 216.754990,451.008636 148.261383,450.999115 
	C133.600403,450.997101 124.693565,443.442780 121.986824,428.935974 
	C117.690895,405.911957 113.291801,382.907043 109.044853,359.874084 
	C108.544662,357.161316 107.549667,355.989349 104.628082,355.715607 
	C97.353508,355.033997 89.960594,354.554504 82.905312,352.816254 
	C68.606300,349.293365 59.021267,336.277527 59.000477,321.513275 
	C58.975136,303.515381 58.993744,285.517395 58.993343,267.024353 
M346.500000,59.007767 
	C256.033752,59.007839 165.567535,59.005062 75.101295,59.011803 
	C64.455353,59.012592 61.345287,62.763458 63.326614,73.287445 
	C72.810104,123.659897 82.373543,174.017456 91.712418,224.416656 
	C92.455002,228.424194 93.902222,229.136230 97.640388,228.696381 
	C109.849106,227.259842 122.101585,226.195618 134.336792,224.983688 
	C149.715485,223.460373 165.093475,221.930023 180.472260,220.407562 
	C195.356125,218.934097 210.237869,217.438080 225.125610,216.004807 
	C240.509430,214.523758 255.902496,213.138733 271.285736,211.652023 
	C286.997101,210.133575 302.700104,208.529556 318.409149,206.987213 
	C333.459473,205.509537 348.514618,204.080475 363.564423,202.597778 
	C378.942810,201.082703 394.303284,199.353683 409.703217,198.110458 
	C413.699127,197.787872 415.470459,196.809738 416.247986,192.595245 
	C423.615051,152.663269 431.261963,112.783028 438.741913,72.871704 
	C440.646240,62.710785 437.404358,59.017300 426.970367,59.012253 
	C400.480255,58.999435 373.990112,59.007866 346.500000,59.007767 
M205.328903,357.148682 
	C238.471771,360.411591 271.612305,363.698700 304.758148,366.930878 
	C341.218079,370.486298 377.674683,374.082153 414.158508,377.374756 
	C417.741547,377.698151 421.886108,376.770050 425.106049,375.123993 
	C432.069733,371.563995 435.078857,365.292023 435.070129,357.430359 
	C435.021729,313.607056 435.049805,269.783691 435.038055,225.960327 
	C435.037659,224.463562 435.008057,222.950226 434.795837,221.472778 
	C433.398346,211.742737 424.066071,204.438416 414.535553,205.402115 
	C389.519958,207.931625 364.501160,210.430542 339.476532,212.868988 
	C300.198822,216.696289 260.912628,220.436523 221.634964,224.264206 
	C178.214294,228.495621 134.804749,232.842224 91.378517,237.015457 
	C76.507584,238.444550 67.034653,248.384369 66.969284,263.387299 
	C66.887245,282.215973 66.883621,301.045624 66.972008,319.874268 
	C67.040794,334.528046 76.435654,344.644958 91.046928,346.082336 
	C99.332527,346.897430 107.613510,347.759735 115.900482,348.560364 
	C145.402893,351.410583 174.906952,354.243500 205.328903,357.148682 
M119.864655,357.038422 
	C116.204735,357.236359 117.279434,359.631561 117.672859,361.732697 
	C121.838966,383.982513 125.978317,406.237427 130.171509,428.482147 
	C131.872971,437.508301 138.107025,442.947723 147.224899,442.955231 
	C216.376022,443.012146 285.527252,443.010590 354.678345,442.958160 
	C363.832092,442.951202 370.087494,437.577118 371.803802,428.570953 
	C374.452209,414.673798 376.918518,400.741364 379.651367,386.861176 
	C380.346100,383.332642 379.324127,382.066284 375.795776,381.798309 
	C368.342102,381.232208 360.915710,380.313751 353.474274,379.578735 
	C337.928101,378.043121 322.380707,376.519409 306.831390,375.015594 
	C291.446442,373.527679 276.056885,372.087341 260.672363,370.594849 
	C245.123581,369.086365 229.579056,367.533997 214.031662,366.011230 
	C198.318741,364.472198 182.605911,362.932404 166.890640,361.417725 
	C151.505859,359.934967 136.118057,358.483490 119.864655,357.038422 
z"/>
<path fill="#C2C2FF" opacity="1.000000" stroke="none" 
	d="
M347.000000,59.007778 
	C373.990112,59.007866 400.480255,58.999435 426.970367,59.012253 
	C437.404358,59.017300 440.646240,62.710785 438.741913,72.871704 
	C431.261963,112.783028 423.615051,152.663269 416.247986,192.595245 
	C415.470459,196.809738 413.699127,197.787872 409.703217,198.110458 
	C394.303284,199.353683 378.942810,201.082703 363.564423,202.597778 
	C348.514618,204.080475 333.459473,205.509537 318.409149,206.987213 
	C302.700104,208.529556 286.997101,210.133575 271.285736,211.652023 
	C255.902496,213.138733 240.509430,214.523758 225.125610,216.004807 
	C210.237869,217.438080 195.356125,218.934097 180.472260,220.407562 
	C165.093475,221.930023 149.715485,223.460373 134.336792,224.983688 
	C122.101585,226.195618 109.849106,227.259842 97.640388,228.696381 
	C93.902222,229.136230 92.455002,228.424194 91.712418,224.416656 
	C82.373543,174.017456 72.810104,123.659897 63.326614,73.287445 
	C61.345287,62.763458 64.455353,59.012592 75.101295,59.011803 
	C165.567535,59.005062 256.033752,59.007839 347.000000,59.007778 
M233.500000,91.125641 
	C224.506104,91.131073 215.512039,91.107704 206.518372,91.156166 
	C202.946884,91.175407 200.122574,92.558640 200.076462,96.534088 
	C200.031952,100.372948 203.053818,101.344017 206.201492,101.789650 
	C207.183792,101.928719 208.196686,101.870728 209.195572,101.870781 
	C269.155304,101.873718 329.115021,101.880348 389.074707,101.842033 
	C391.045868,101.840775 393.318176,101.901756 394.903839,100.986923 
	C396.520203,100.054329 398.464874,97.923309 398.421509,96.368446 
	C398.376312,94.748589 396.425018,92.586906 394.762482,91.768372 
	C392.969604,90.885658 390.545471,91.146828 388.396606,91.145744 
	C337.097748,91.119896 285.798859,91.125938 233.500000,91.125641 
M251.500000,133.125793 
	C238.343262,133.126328 225.186447,133.102631 212.029831,133.142899 
	C208.315918,133.154266 204.297043,132.978043 203.938477,138.256241 
	C203.674240,142.145798 206.054749,143.711121 212.139511,143.867615 
	C212.472412,143.876175 212.805634,143.872955 213.138718,143.872955 
	C268.097015,143.873138 323.055328,143.880371 378.013641,143.863663 
	C384.617737,143.861649 387.752533,142.024399 387.674133,138.396667 
	C387.596100,134.785431 384.562500,133.129822 377.904877,133.128891 
	C336.103241,133.122971 294.301636,133.126144 251.500000,133.125793 
M359.494202,175.125900 
	C312.168304,175.125793 264.842407,175.124619 217.516495,175.129623 
	C215.684387,175.129822 213.577896,174.629410 212.088104,175.359619 
	C210.127655,176.320496 207.208115,178.378601 207.312012,179.769974 
	C207.461868,181.777054 209.634369,184.109238 211.557907,185.352524 
	C213.016129,186.295059 215.432755,185.858383 217.422974,185.859146 
	C267.748383,185.878433 318.073822,185.874496 368.399231,185.873428 
	C369.565674,185.873413 370.739319,185.940186 371.897186,185.836700 
	C375.426788,185.521225 378.926208,184.644699 378.781097,180.282928 
	C378.649139,176.315628 375.403931,175.272278 371.987976,175.172653 
	C368.158356,175.060989 364.323334,175.133850 359.494202,175.125900 
M133.500000,101.874023 
	C141.323883,101.874138 149.147797,101.884933 156.971664,101.870522 
	C161.964783,101.861328 166.971451,102.027184 171.945999,101.708252 
	C175.112686,101.505226 178.450363,99.896339 177.586792,96.280609 
	C177.102188,94.251648 173.982544,92.749588 171.867416,91.271591 
	C171.185150,90.794846 169.920517,91.130302 168.922287,91.130081 
	C149.945206,91.125984 130.968079,91.108536 111.991119,91.157768 
	C110.189590,91.162437 108.070702,91.085152 106.675072,91.962288 
	C105.189636,92.895866 103.537010,94.917679 103.533173,96.468246 
	C103.529442,97.976944 105.224579,100.011368 106.716873,100.860794 
	C108.323723,101.775429 110.558121,101.800240 112.524765,101.831345 
	C119.181732,101.936584 125.841377,101.872726 133.500000,101.874023 
M141.500031,133.126999 
	C134.348083,133.154968 127.161377,132.802139 120.065994,133.449844 
	C118.016342,133.636932 116.229172,136.699448 114.321671,138.443741 
	C116.062874,140.152283 117.705650,141.983582 119.599396,143.501877 
	C120.250046,144.023529 121.527657,143.846527 122.518990,143.847488 
	C140.151154,143.864807 157.783508,143.901169 175.415375,143.827057 
	C179.056503,143.811752 182.938477,143.143250 182.906418,138.456451 
	C182.875015,133.865479 179.244827,133.117249 175.435654,133.123627 
	C164.457123,133.142014 153.478561,133.128510 141.500031,133.126999 
M130.038635,185.850113 
	C146.695251,185.850266 163.352249,185.909531 180.008194,185.803833 
	C183.613205,185.780975 187.629883,185.057312 187.535446,180.403671 
	C187.443954,175.895920 183.695343,175.129532 179.907928,175.130951 
	C163.417801,175.137177 146.927658,175.121445 130.437592,175.155350 
	C127.061874,175.162292 123.779678,175.971664 123.242775,179.860580 
	C122.675545,183.969070 125.826668,185.163818 130.038635,185.850113 
z"/>
<path fill="#788FFF" opacity="1.000000" stroke="none" 
	d="
M204.869659,357.115814 
	C174.906952,354.243500 145.402893,351.410583 115.900482,348.560364 
	C107.613510,347.759735 99.332527,346.897430 91.046928,346.082336 
	C76.435654,344.644958 67.040794,334.528046 66.972008,319.874268 
	C66.883621,301.045624 66.887245,282.215973 66.969284,263.387299 
	C67.034653,248.384369 76.507584,238.444550 91.378517,237.015457 
	C134.804749,232.842224 178.214294,228.495621 221.634964,224.264206 
	C260.912628,220.436523 300.198822,216.696289 339.476532,212.868988 
	C364.501160,210.430542 389.519958,207.931625 414.535553,205.402115 
	C424.066071,204.438416 433.398346,211.742737 434.795837,221.472778 
	C435.008057,222.950226 435.037659,224.463562 435.038055,225.960327 
	C435.049805,269.783691 435.021729,313.607056 435.070129,357.430359 
	C435.078857,365.292023 432.069733,371.563995 425.106049,375.123993 
	C421.886108,376.770050 417.741547,377.698151 414.158508,377.374756 
	C377.674683,374.082153 341.218079,370.486298 304.758148,366.930878 
	C271.612305,363.698700 238.471771,360.411591 204.869659,357.115814 
M377.500000,260.995544 
	C349.681671,260.996216 321.863312,260.972626 294.045044,261.010773 
	C284.341370,261.024078 278.461487,266.258301 278.145599,275.805176 
	C277.798767,286.287567 277.798096,296.799561 278.152466,307.281586 
	C278.463470,316.479462 284.510071,321.973907 293.695892,321.983948 
	C331.841919,322.025726 369.988068,322.024506 408.134094,321.984436 
	C417.016541,321.975098 422.938812,316.184296 423.031799,307.407043 
	C423.142975,296.913879 423.128143,286.418121 423.040070,275.924561 
	C422.963104,266.753632 417.183105,261.063324 407.984039,261.010651 
	C398.156311,260.954376 388.328033,260.996399 377.500000,260.995544 
M162.608856,279.866302 
	C143.848099,270.190430 125.346199,259.958557 106.225174,251.056534 
	C95.520050,246.072662 82.991013,254.496948 82.546768,266.472809 
	C81.930077,283.097565 81.872536,299.785339 82.577736,316.403625 
	C83.150475,329.900574 96.661674,337.234039 108.798317,331.197968 
	C125.483971,322.899536 142.080963,314.414490 158.570969,305.734009 
	C169.280609,300.096344 171.003906,289.564728 162.608856,279.866302 
M228.797623,321.995209 
	C231.951920,321.877533 235.197235,322.199768 238.245361,321.569031 
	C255.010452,318.100006 265.549316,301.159454 261.624023,284.322662 
	C257.826447,268.033844 241.365692,257.815063 224.890701,261.518799 
	C210.430206,264.769653 200.489258,277.899139 201.012756,293.055573 
	C201.522583,307.816345 212.326843,319.437653 228.797623,321.995209 
z"/>
<path fill="#C2C2FF" opacity="1.000000" stroke="none" 
	d="
M120.298111,357.028381 
	C136.118057,358.483490 151.505859,359.934967 166.890640,361.417725 
	C182.605911,362.932404 198.318741,364.472198 214.031662,366.011230 
	C229.579056,367.533997 245.123581,369.086365 260.672363,370.594849 
	C276.056885,372.087341 291.446442,373.527679 306.831390,375.015594 
	C322.380707,376.519409 337.928101,378.043121 353.474274,379.578735 
	C360.915710,380.313751 368.342102,381.232208 375.795776,381.798309 
	C379.324127,382.066284 380.346100,383.332642 379.651367,386.861176 
	C376.918518,400.741364 374.452209,414.673798 371.803802,428.570953 
	C370.087494,437.577118 363.832092,442.951202 354.678345,442.958160 
	C285.527252,443.010590 216.376022,443.012146 147.224899,442.955231 
	C138.107025,442.947723 131.872971,437.508301 130.171509,428.482147 
	C125.978317,406.237427 121.838966,383.982513 117.672859,361.732697 
	C117.279434,359.631561 116.204735,357.236359 120.298111,357.028381 
M251.500000,407.873688 
	C278.469543,407.873657 305.439056,407.881439 332.408600,407.867828 
	C338.845245,407.864563 342.362030,405.890106 341.818970,402.295380 
	C340.994171,396.836334 336.534546,397.140198 332.509186,397.137939 
	C297.881622,397.118378 263.254059,397.119202 228.626526,397.147736 
	C226.812744,397.149231 224.672684,396.916443 223.270767,397.763245 
	C221.631165,398.753632 219.668640,400.790497 219.636978,402.408417 
	C219.606491,403.966187 221.569275,406.079529 223.193939,407.006348 
	C224.784500,407.913696 227.051041,407.816406 229.024643,407.839539 
	C236.182251,407.923553 243.341415,407.872925 251.500000,407.873688 
M194.362030,407.872955 
	C196.997528,407.649323 199.848450,407.960876 202.193924,407.016724 
	C203.798126,406.370972 205.680191,403.948669 205.637985,402.368683 
	C205.595154,400.765656 203.504074,399.031403 201.986343,397.733063 
	C201.240387,397.095001 199.763092,397.169617 198.615814,397.165192 
	C188.295242,397.125275 177.974411,397.125854 167.653793,397.156982 
	C166.502441,397.160431 164.991562,397.020905 164.274323,397.655853 
	C162.673340,399.073120 160.563705,400.850983 160.390976,402.648193 
	C160.254776,404.065369 162.457443,406.106720 164.081436,407.164185 
	C165.323456,407.972870 167.283752,407.833710 168.926483,407.845459 
	C177.082809,407.903748 185.239792,407.872284 194.362030,407.872955 
z"/>
<path fill="#FAFAFF" opacity="1.000000" stroke="none" 
	d="
M234.000000,91.125916 
	C285.798859,91.125938 337.097748,91.119896 388.396606,91.145744 
	C390.545471,91.146828 392.969604,90.885658 394.762482,91.768372 
	C396.425018,92.586906 398.376312,94.748589 398.421509,96.368446 
	C398.464874,97.923309 396.520203,100.054329 394.903839,100.986923 
	C393.318176,101.901756 391.045868,101.840775 389.074707,101.842033 
	C329.115021,101.880348 269.155304,101.873718 209.195572,101.870781 
	C208.196686,101.870728 207.183792,101.928719 206.201492,101.789650 
	C203.053818,101.344017 200.031952,100.372948 200.076462,96.534088 
	C200.122574,92.558640 202.946884,91.175407 206.518372,91.156166 
	C215.512039,91.107704 224.506104,91.131073 234.000000,91.125916 
z"/>
<path fill="#FAFAFF" opacity="1.000000" stroke="none" 
	d="
M252.000000,133.126053 
	C294.301636,133.126144 336.103241,133.122971 377.904877,133.128891 
	C384.562500,133.129822 387.596100,134.785431 387.674133,138.396667 
	C387.752533,142.024399 384.617737,143.861649 378.013641,143.863663 
	C323.055328,143.880371 268.097015,143.873138 213.138718,143.872955 
	C212.805634,143.872955 212.472412,143.876175 212.139511,143.867615 
	C206.054749,143.711121 203.674240,142.145798 203.938477,138.256241 
	C204.297043,132.978043 208.315918,133.154266 212.029831,133.142899 
	C225.186447,133.102631 238.343262,133.126328 252.000000,133.126053 
z"/>
<path fill="#FAFAFF" opacity="1.000000" stroke="none" 
	d="
M359.992432,175.126160 
	C364.323334,175.133850 368.158356,175.060989 371.987976,175.172653 
	C375.403931,175.272278 378.649139,176.315628 378.781097,180.282928 
	C378.926208,184.644699 375.426788,185.521225 371.897186,185.836700 
	C370.739319,185.940186 369.565674,185.873413 368.399231,185.873428 
	C318.073822,185.874496 267.748383,185.878433 217.422974,185.859146 
	C215.432755,185.858383 213.016129,186.295059 211.557907,185.352524 
	C209.634369,184.109238 207.461868,181.777054 207.312012,179.769974 
	C207.208115,178.378601 210.127655,176.320496 212.088104,175.359619 
	C213.577896,174.629410 215.684387,175.129822 217.516495,175.129623 
	C264.842407,175.124619 312.168304,175.125793 359.992432,175.126160 
z"/>
<path fill="#FAFAFF" opacity="1.000000" stroke="none" 
	d="
M133.000000,101.873756 
	C125.841377,101.872726 119.181732,101.936584 112.524765,101.831345 
	C110.558121,101.800240 108.323723,101.775429 106.716873,100.860794 
	C105.224579,100.011368 103.529442,97.976944 103.533173,96.468246 
	C103.537010,94.917679 105.189636,92.895866 106.675072,91.962288 
	C108.070702,91.085152 110.189590,91.162437 111.991119,91.157768 
	C130.968079,91.108536 149.945206,91.125984 168.922287,91.130081 
	C169.920517,91.130302 171.185150,90.794846 171.867416,91.271591 
	C173.982544,92.749588 177.102188,94.251648 177.586792,96.280609 
	C178.450363,99.896339 175.112686,101.505226 171.945999,101.708252 
	C166.971451,102.027184 161.964783,101.861328 156.971664,101.870522 
	C149.147797,101.884933 141.323883,101.874138 133.000000,101.873756 
z"/>
<path fill="#FAFAFF" opacity="1.000000" stroke="none" 
	d="
M142.000015,133.127258 
	C153.478561,133.128510 164.457123,133.142014 175.435654,133.123627 
	C179.244827,133.117249 182.875015,133.865479 182.906418,138.456451 
	C182.938477,143.143250 179.056503,143.811752 175.415375,143.827057 
	C157.783508,143.901169 140.151154,143.864807 122.518990,143.847488 
	C121.527657,143.846527 120.250046,144.023529 119.599396,143.501877 
	C117.705650,141.983582 116.062874,140.152283 114.321671,138.443741 
	C116.229172,136.699448 118.016342,133.636932 120.065994,133.449844 
	C127.161377,132.802139 134.348083,133.154968 142.000015,133.127258 
z"/>
<path fill="#FAFAFF" opacity="1.000000" stroke="none" 
	d="
M129.602478,185.824326 
	C125.826668,185.163818 122.675545,183.969070 123.242775,179.860580 
	C123.779678,175.971664 127.061874,175.162292 130.437592,175.155350 
	C146.927658,175.121445 163.417801,175.137177 179.907928,175.130951 
	C183.695343,175.129532 187.443954,175.895920 187.535446,180.403671 
	C187.629883,185.057312 183.613205,185.780975 180.008194,185.803833 
	C163.352249,185.909531 146.695251,185.850266 129.602478,185.824326 
z"/>
<path fill="#C2C2FF" opacity="1.000000" stroke="none" 
	d="
M378.000000,260.995544 
	C388.328033,260.996399 398.156311,260.954376 407.984039,261.010651 
	C417.183105,261.063324 422.963104,266.753632 423.040070,275.924561 
	C423.128143,286.418121 423.142975,296.913879 423.031799,307.407043 
	C422.938812,316.184296 417.016541,321.975098 408.134094,321.984436 
	C369.988068,322.024506 331.841919,322.025726 293.695892,321.983948 
	C284.510071,321.973907 278.463470,316.479462 278.152466,307.281586 
	C277.798096,296.799561 277.798767,286.287567 278.145599,275.805176 
	C278.461487,266.258301 284.341370,261.024078 294.045044,261.010773 
	C321.863312,260.972626 349.681671,260.996216 378.000000,260.995544 
z"/>
<path fill="#FEFEFF" opacity="1.000000" stroke="none" 
	d="
M162.868958,280.122040 
	C171.003906,289.564728 169.280609,300.096344 158.570969,305.734009 
	C142.080963,314.414490 125.483971,322.899536 108.798317,331.197968 
	C96.661674,337.234039 83.150475,329.900574 82.577736,316.403625 
	C81.872536,299.785339 81.930077,283.097565 82.546768,266.472809 
	C82.991013,254.496948 95.520050,246.072662 106.225174,251.056534 
	C125.346199,259.958557 143.848099,270.190430 162.868958,280.122040 
z"/>
<path fill="#C2C2FF" opacity="1.000000" stroke="none" 
	d="
M228.347778,321.984528 
	C212.326843,319.437653 201.522583,307.816345 201.012756,293.055573 
	C200.489258,277.899139 210.430206,264.769653 224.890701,261.518799 
	C241.365692,257.815063 257.826447,268.033844 261.624023,284.322662 
	C265.549316,301.159454 255.010452,318.100006 238.245361,321.569031 
	C235.197235,322.199768 231.951920,321.877533 228.347778,321.984528 
z"/>
<path fill="#FAFAFF" opacity="1.000000" stroke="none" 
	d="
M251.000000,407.873413 
	C243.341415,407.872925 236.182251,407.923553 229.024643,407.839539 
	C227.051041,407.816406 224.784500,407.913696 223.193939,407.006348 
	C221.569275,406.079529 219.606491,403.966187 219.636978,402.408417 
	C219.668640,400.790497 221.631165,398.753632 223.270767,397.763245 
	C224.672684,396.916443 226.812744,397.149231 228.626526,397.147736 
	C263.254059,397.119202 297.881622,397.118378 332.509186,397.137939 
	C336.534546,397.140198 340.994171,396.836334 341.818970,402.295380 
	C342.362030,405.890106 338.845245,407.864563 332.408600,407.867828 
	C305.439056,407.881439 278.469543,407.873657 251.000000,407.873413 
z"/>
<path fill="#FAFAFF" opacity="1.000000" stroke="none" 
	d="
M193.879272,407.872681 
	C185.239792,407.872284 177.082809,407.903748 168.926483,407.845459 
	C167.283752,407.833710 165.323456,407.972870 164.081436,407.164185 
	C162.457443,406.106720 160.254776,404.065369 160.390976,402.648193 
	C160.563705,400.850983 162.673340,399.073120 164.274323,397.655853 
	C164.991562,397.020905 166.502441,397.160431 167.653793,397.156982 
	C177.974411,397.125854 188.295242,397.125275 198.615814,397.165192 
	C199.763092,397.169617 201.240387,397.095001 201.986343,397.733063 
	C203.504074,399.031403 205.595154,400.765656 205.637985,402.368683 
	C205.680191,403.948669 203.798126,406.370972 202.193924,407.016724 
	C199.848450,407.960876 196.997528,407.649323 193.879272,407.872681 
z"/>
</svg>